<?xml version="1.0" encoding="UTF-8"?>
<svg id="Layer_1" xmlns="http://www.w3.org/2000/svg" version="1.1" viewBox="0 0 1141.8 525">
  <!-- Generator: Adobe Illustrator 29.0.1, SVG Export Plug-In . SVG Version: 2.1.0 Build 192)  -->
  <defs>
    <style>
      .st0 {
        fill: #1212cf;
      }
    </style>
  </defs>
  <g>
    <g>
      <path class="st0" d="M474,236.3v-74.3h-27v-17.7h77.1v17.7h-27v74.3h-23Z"/>
      <path class="st0" d="M563.1,236.3c-11.8,0-21.3-2.9-28.4-8.8-7.1-5.9-10.7-14.7-10.7-26.5s3-19.3,8.9-25.7c5.9-6.4,14.8-9.6,26.6-9.6s19.1,2.8,25,8.3c5.9,5.5,8.9,13,8.9,22.3v12.1h-48c1,4.5,3.5,7.6,7.4,9.4,3.9,1.8,9.1,2.6,15.8,2.6s7.5-.3,11.4-1c3.9-.7,7.1-1.5,9.7-2.6v15c-3.2,1.5-7.1,2.6-11.6,3.4-4.5.7-9.4,1.1-14.7,1.1ZM545.2,195.1h28v-3c0-3.3-1-6-3-7.9-2-2-5.4-2.9-10.2-2.9s-9.4,1.1-11.6,3.4c-2.2,2.2-3.3,5.7-3.3,10.5Z"/>
      <path class="st0" d="M638.6,236.3c-12.1,0-21.6-3-28.4-8.9-6.8-5.9-10.2-14.7-10.2-26.5s3.5-20.8,10.7-26.6c7.1-5.8,16.6-8.7,28.4-8.7s9.3.4,12.9,1.1c3.7.7,7.2,1.9,10.7,3.5v16.3c-5.3-2.6-11.6-3.9-18.7-3.9s-11.7,1.3-15.2,4c-3.5,2.7-5.2,7.4-5.2,14.3s1.6,11,4.9,13.9c3.2,2.9,8.4,4.4,15.4,4.4s13.3-1.4,19-4.3v17c-3.4,1.5-7.1,2.6-11.1,3.3-4,.7-8.3,1-13.1,1Z"/>
      <path class="st0" d="M676.2,236.3v-96.4h23v33.6c2.6-1.9,5.8-3.5,9.6-4.6,3.8-1.2,7.9-1.8,12.3-1.8,9.1,0,15.7,2.1,19.9,6.4,4.2,4.3,6.4,10.9,6.4,19.7v43h-23v-41.5c0-3.9-.8-6.7-2.4-8.3-1.6-1.6-4.5-2.4-8.7-2.4s-5,.6-7.6,1.7c-2.6,1.1-4.7,2.6-6.4,4.3v46.2h-23Z"/>
      <path class="st0" d="M761,140.5v17.3h23.2v-17.3h-23.2ZM761,168.5v67.8h23v-67.8h-23Z"/>
      <path class="st0" d="M836.7,236.3c-11.8,0-21.3-2.9-28.4-8.8-7.1-5.9-10.7-14.7-10.7-26.5s3-19.3,8.9-25.7,14.8-9.6,26.6-9.6,19.1,2.8,25,8.3c5.9,5.5,8.9,13,8.9,22.3v12.1h-48c1,4.5,3.5,7.6,7.4,9.4,3.9,1.8,9.1,2.6,15.8,2.6s7.5-.3,11.4-1c3.9-.7,7.1-1.5,9.7-2.6v15c-3.2,1.5-7.1,2.6-11.6,3.4-4.5.7-9.4,1.1-14.7,1.1ZM818.8,195.1h28v-3c0-3.3-1-6-3-7.9-2-2-5.4-2.9-10.2-2.9s-9.4,1.1-11.6,3.4c-2.2,2.2-3.3,5.7-3.3,10.5Z"/>
      <path class="st0" d="M908.3,236.3c-5.4,0-10.6-.4-15.4-1.1-4.9-.8-8.7-1.7-11.6-2.9v-17.6c3.3,1.4,7.2,2.5,11.6,3.3,4.4.8,8.3,1.1,11.7,1.1s7.1-.2,8.9-.6c1.9-.4,2.8-1.4,2.8-3.1s-1.5-3.3-4.6-4.3c-3-.9-7.2-2.3-12.6-4.1-6.2-2.2-10.9-4.7-14.1-7.6-3.2-2.9-4.8-7.2-4.8-12.9s2.5-11.8,7.5-15.4c5-3.6,13-5.4,23.9-5.4s8.5.3,12.7,1c4.2.7,7.6,1.4,10.3,2.3v17.3c-2.7-1.2-5.7-2.1-9.2-2.7-3.4-.6-6.5-.9-9.3-.9s-6.5.2-8.9.6c-2.4.4-3.6,1.5-3.6,3.1s1.3,3.1,4,3.8c2.7.7,6.5,1.9,11.6,3.5,5.3,1.6,9.5,3.4,12.4,5.2,3,1.9,5.1,4.1,6.3,6.6,1.2,2.6,1.9,5.8,1.9,9.7,0,6.8-2.7,12-8,15.6-5.3,3.6-13.2,5.4-23.6,5.4Z"/>
    </g>
    <g>
      <path class="st0" d="M490.3,354.2v-18.3h-43.3v-15.3l46.2-58.5h20.2v55.2h8.6v18.6h-8.6v18.3h-23ZM469.2,318.2h25v-30.7l-25,30.7Z"/>
      <path class="st0" d="M548.8,354.2v-92.1h23v92.1h-23Z"/>
      <path class="st0" d="M585.2,354.2v-67.8h21.3l.7,6c3-2.2,6.5-4,10.3-5.4,3.8-1.4,7.9-2.1,12.3-2.1s8.1.7,10.7,2.1c2.6,1.4,4.6,3.3,6,5.8,3.1-2.3,6.7-4.2,10.7-5.6,4-1.5,8.6-2.2,13.9-2.2,7.9,0,13.7,2.1,17.4,6.2,3.7,4.1,5.6,10.3,5.6,18.7v44.3h-22.7v-41.6c0-3.7-.8-6.4-2.4-8.1-1.6-1.7-4.1-2.5-7.6-2.5s-4.3.5-6.4,1.4c-2.1.9-3.9,2.2-5.3,3.8.2,1,.3,2.1.4,3,0,1,0,2.1,0,3.4v40.6h-21.4v-41.9c0-3.4-.6-6-1.8-7.7-1.2-1.7-3.5-2.6-6.8-2.6s-4.6.6-6.7,1.9c-2.1,1.2-4,2.7-5.7,4.3v46h-22.4Z"/>
      <path class="st0" d="M707.6,385.1v-98.6h20l1.1,5.9c2.8-2.3,5.9-4.1,9.3-5.4,3.4-1.3,7.4-1.9,12-1.9,9.6,0,17.2,2.6,22.9,7.8,5.6,5.2,8.4,13.9,8.4,26.1s-2.9,21.3-8.6,27.5c-5.8,6.2-13.7,9.3-23.8,9.3s-13.2-1.5-18.3-4.4v33.9h-23ZM743.1,338.8c9.9,0,14.9-6.8,14.9-20.3s-1.1-10.9-3.4-13.2c-2.3-2.3-6-3.4-11-3.4s-9.1,1.7-12.9,5.1v27.5c1.8,1.3,3.6,2.4,5.5,3.1,1.9.8,4.2,1.1,6.9,1.1Z"/>
      <path class="st0" d="M818.8,355.7c-4.3,0-8.3-.8-11.9-2.3-3.7-1.5-6.6-3.9-8.8-7.1-2.2-3.2-3.3-7.2-3.3-11.9,0-7,2.4-12.4,7.1-16.4,4.7-3.9,11.8-5.9,21.2-5.9h18.9v-1.6c0-3.4-1.1-5.9-3.4-7.4-2.3-1.5-6.6-2.2-12.9-2.2s-15.3,1.2-22.7,3.6v-14.9c3.3-1.3,7.4-2.4,12.2-3.3,4.8-.9,9.9-1.3,15.2-1.3,10.5,0,18.7,2.1,24.7,6.4,6,4.3,8.9,11.1,8.9,20.4v42.3h-20.2l-1.1-5.7c-2.5,2.3-5.6,4.1-9.5,5.3-3.9,1.2-8.6,1.9-14.4,1.9ZM826.1,341.5c3.6,0,6.8-.6,9.4-1.9,2.7-1.2,4.8-2.8,6.4-4.7v-9.6h-16.3c-6.8,0-10.2,2.7-10.2,8.2s.9,4.4,2.6,5.9c1.7,1.4,4.4,2.1,8,2.1Z"/>
      <path class="st0" d="M916,355.7c-12.1,0-21.6-3-28.4-8.9-6.8-5.9-10.2-14.7-10.2-26.5s3.5-20.8,10.7-26.6c7.1-5.8,16.6-8.7,28.4-8.7s9.3.4,12.9,1.1c3.7.7,7.2,1.9,10.7,3.5v16.3c-5.3-2.6-11.6-3.9-18.7-3.9s-11.7,1.3-15.2,4c-3.5,2.7-5.2,7.4-5.2,14.3s1.6,11,4.9,13.9c3.2,2.9,8.4,4.4,15.4,4.4s13.3-1.4,19-4.3v17c-3.4,1.5-7.1,2.6-11.1,3.3-4,.7-8.3,1-13.1,1Z"/>
      <path class="st0" d="M987.2,355.7c-8.4,0-14.6-2.1-18.5-6.4-4-4.3-5.9-10.2-5.9-17.7v-27.6h-9.1v-17.4h9.1v-14.2l23-6.1v20.3h16.4l-1,17.4h-15.4v26c0,3.2.8,5.5,2.4,6.8,1.6,1.3,4.1,1.9,7.3,1.9s5.6-.5,8.4-1.4v15.6c-4.5,1.9-10.1,2.9-16.7,2.9Z"/>
    </g>
  </g>
  <g>
    <polygon class="st0" points="402.7 141.2 402.7 185.3 314.2 185.3 314.2 383.8 269.9 383.8 269.9 339.6 137.9 339.6 137.9 295.5 226.1 207.3 257.2 238.4 200.2 295.5 269.9 295.5 269.9 185.3 182 185.3 182 141.2 402.7 141.2"/>
    <rect class="st0" x="336.1" y="207.3" width="44.3" height="176.5"/>
  </g>
</svg>